<?xml version="1.0" encoding="UTF-8" standalone="no"?>
<!-- Created with Inkscape (http://www.inkscape.org/) -->

<svg
   xmlns:dc="http://purl.org/dc/elements/1.1/"
   xmlns:cc="http://creativecommons.org/ns#"
   xmlns:rdf="http://www.w3.org/1999/02/22-rdf-syntax-ns#"
   xmlns:svg="http://www.w3.org/2000/svg"
   xmlns="http://www.w3.org/2000/svg"
   xmlns:sodipodi="http://sodipodi.sourceforge.net/DTD/sodipodi-0.dtd"
   xmlns:inkscape="http://www.inkscape.org/namespaces/inkscape"
   width="48"
   height="48"
   id="svg3352"
   version="1.1"
   inkscape:version="0.91 r"
   viewBox="0 0 48 48"
   sodipodi:docname="image_genres.svg">
  <defs
     id="defs3354" />
  <sodipodi:namedview
     id="base"
     pagecolor="#ffffff"
     bordercolor="#666666"
     borderopacity="1.0"
     inkscape:pageopacity="0.0"
     inkscape:pageshadow="2"
     inkscape:zoom="4.9497475"
     inkscape:cx="31.626625"
     inkscape:cy="7.1567182"
     inkscape:current-layer="layer1"
     showgrid="true"
     inkscape:grid-bbox="true"
     inkscape:document-units="px"
     inkscape:window-width="1366"
     inkscape:window-height="721"
     inkscape:window-x="0"
     inkscape:window-y="24"
     inkscape:window-maximized="1" />
  <metadata
     id="metadata3357">
    <rdf:RDF>
      <cc:Work
         rdf:about="">
        <dc:format>image/svg+xml</dc:format>
        <dc:type
           rdf:resource="http://purl.org/dc/dcmitype/StillImage" />
        <dc:title />
      </cc:Work>
    </rdf:RDF>
  </metadata>
  <g
     id="layer1"
     inkscape:label="Layer 1"
     inkscape:groupmode="layer">
    <path
       style="display:inline;fill:#808080;fill-opacity:1;stroke:none;stroke-width:1px;stroke-linecap:butt;stroke-linejoin:miter;stroke-opacity:1"
       d="M 22.834805,44.074007 C 15.141537,42.118464 9.5918215,35.400372 6.7685962,24.625386 c -0.821175,-3.134064 -1.32547,-5.96391 -1.699078,-9.534422 -0.223634,-2.137181 -0.438535,-6.8055597 -0.346104,-7.5183967 0.259673,-2.002495 2.422338,-2.639602 10.0718478,-2.967117 5.9733,-0.255744 8.665095,-0.27378 12.783633,-0.08564 9.857425,0.450276 12.711574,0.930098 13.826243,2.324393 0.287521,0.359638 0.318392,0.488387 0.354566,1.47859 0.02181,0.596558 -0.01882,2.1317537 -0.09023,3.4115427 -0.835574,14.971231 -5.115806,25.679284 -12.081551,30.225005 -1.54572,1.008715 -3.011933,1.659113 -4.78069,2.120684 l -0.961601,0.250938 -1.010816,-0.256945 z M 16.49672,35.012509 c 0.370848,-0.0922 1.106986,-0.392875 1.635862,-0.668166 0.528885,-0.275292 1.265168,-0.649509 1.636196,-0.831596 l 0.674596,-0.331059 3.228372,-0.01244 c 2.311,-0.0089 3.364933,0.02644 3.708955,0.124393 0.264325,0.07527 0.951582,0.4029 1.527248,0.728082 1.508043,0.851861 2.215818,1.085818 3.309255,1.09389 0.730102,0.0052 1.010346,-0.04243 1.449868,-0.247534 0.630602,-0.294243 1.086523,-0.874763 1.173542,-1.494249 0.0572,-0.407013 0.03466,-0.439135 -0.901832,-1.285587 -1.565514,-1.415019 -2.954436,-1.978263 -6.133628,-2.487347 -1.769798,-0.283389 -6.149258,-0.283389 -7.919065,0 -3.328288,0.532954 -4.847599,1.172584 -6.395563,2.692552 -0.765281,0.751432 -0.81618,0.956775 -0.420489,1.696221 0.307884,0.57536 0.67979,0.849529 1.404779,1.035591 0.737966,0.189399 1.22111,0.186357 2.021904,-0.0127 z M 35.109753,21.288606 c 0.739532,-0.207417 1.243212,-0.489354 1.894539,-1.06047 0.815981,-0.715499 0.823149,-0.679488 -0.349154,-1.752956 -0.574227,-0.525824 -1.965195,-1.822041 -3.091032,-2.880482 l -2.046983,-1.924431 -0.357861,0.389193 c -1.600873,1.741031 -1.654731,4.545514 -0.118116,6.15096 1.061797,1.109358 2.55069,1.503909 4.068607,1.078186 z M 13.885601,20.805163 c 1.673357,-0.597828 2.828934,-2.512823 2.613509,-4.331044 -0.136281,-1.150192 -0.70677,-2.340147 -1.412961,-2.94718 L 14.841627,13.316748 12.55585,15.47791 c -1.257168,1.188633 -2.6371205,2.479932 -3.0665425,2.869549 l -0.7807843,0.708395 0.3137943,0.392832 c 0.426191,0.533559 1.2863545,1.119151 2.0082385,1.367202 0.825438,0.283622 2.04397,0.27905 2.855045,-0.01072 l 0,-8e-6 z"
       id="path4919"
       inkscape:connector-curvature="0" />
  </g>
</svg>
