<?xml version="1.0" encoding="UTF-8" standalone="no"?>
<!-- Created with Inkscape (http://www.inkscape.org/) -->

<svg
   xmlns:dc="http://purl.org/dc/elements/1.1/"
   xmlns:cc="http://creativecommons.org/ns#"
   xmlns:rdf="http://www.w3.org/1999/02/22-rdf-syntax-ns#"
   xmlns:svg="http://www.w3.org/2000/svg"
   xmlns="http://www.w3.org/2000/svg"
   xmlns:sodipodi="http://sodipodi.sourceforge.net/DTD/sodipodi-0.dtd"
   xmlns:inkscape="http://www.inkscape.org/namespaces/inkscape"
   width="48"
   height="48"
   id="svg3352"
   version="1.1"
   inkscape:version="0.91 r"
   viewBox="0 0 48 48"
   sodipodi:docname="image_genres_hover.svg">
  <defs
     id="defs3354" />
  <sodipodi:namedview
     id="base"
     pagecolor="#ffffff"
     bordercolor="#666666"
     borderopacity="1.0"
     inkscape:pageopacity="0.0"
     inkscape:pageshadow="2"
     inkscape:zoom="8"
     inkscape:cx="55.411067"
     inkscape:cy="15.841392"
     inkscape:current-layer="layer1"
     showgrid="true"
     inkscape:grid-bbox="true"
     inkscape:document-units="px"
     inkscape:window-width="1366"
     inkscape:window-height="721"
     inkscape:window-x="0"
     inkscape:window-y="24"
     inkscape:window-maximized="1"
     inkscape:object-paths="true"
     inkscape:snap-intersection-paths="true"
     inkscape:object-nodes="true"
     inkscape:snap-smooth-nodes="true"
     inkscape:snap-global="false" />
  <metadata
     id="metadata3357">
    <rdf:RDF>
      <cc:Work
         rdf:about="">
        <dc:format>image/svg+xml</dc:format>
        <dc:type
           rdf:resource="http://purl.org/dc/dcmitype/StillImage" />
        <dc:title></dc:title>
      </cc:Work>
    </rdf:RDF>
  </metadata>
  <g
     id="layer1"
     inkscape:label="Layer 1"
     inkscape:groupmode="layer">
    <path
       style="fill:#000000;fill-opacity:0;stroke:none;stroke-width:1px;stroke-linecap:butt;stroke-linejoin:miter;stroke-opacity:1"
       d="M 23.170671,43.42551 C 22.292711,43.32576 21.035527,42.986293 19.803412,42.516269 18.554906,42.039993 16.393856,40.979605 15.634428,40.470625 14.712654,39.852835 12.053292,36.975771 10.650312,35.078493 9.2013111,33.118983 8.3536561,31.193225 7.6199067,28.193815 7.1134064,26.123354 6.9081925,24.758799 6.7725518,22.559409 6.604991,19.842407 6.3755903,17.078641 5.8052191,10.90513 5.6064224,8.7534118 5.4410417,6.8048965 5.4377089,6.5750956 5.4278855,5.8992311 5.6780774,5.5587289 6.187784,5.5541923 c 0.1748383,-0.00152 1.2522058,0.3460463 2.6534621,0.8561116 4.2565839,1.5494216 5.2033749,1.8162696 8.4768099,2.3891392 3.503107,0.6130628 3.774051,0.6379163 7.335811,0.6728974 3.665656,0.035997 4.704348,-0.026813 6.975031,-0.4218286 3.89637,-0.6778199 5.128616,-1.0331495 9.239135,-2.6641801 2.052444,-0.8143974 2.440395,-0.9208023 2.745549,-0.7530271 0.353952,0.1946014 0.351045,0.3904005 -0.07415,4.9943703 -0.493651,5.345241 -0.855015,9.71989 -0.965204,11.684647 -0.128963,2.299562 -0.300086,3.491851 -0.80442,5.604756 -0.582603,2.440827 -1.403469,4.585487 -2.27563,5.9455 -1.421144,2.216075 -4.53348,5.744055 -5.840637,6.620634 -0.630141,0.422572 -2.640483,1.434002 -3.748361,1.885847 -1.058613,0.431755 -2.504458,0.860774 -3.287084,0.975364 -0.818792,0.119884 -2.713654,0.164457 -3.44743,0.08109 z m 3.334611,-2.832119 c 1.481048,-0.264808 3.183635,-0.980308 4.602495,-1.934162 2.869302,-1.928948 5.31139,-4.702405 6.706478,-7.616493 1.082807,-2.261787 1.561184,-4.420321 2.071743,-9.348132 0.114993,-1.109833 0.298356,-2.75914 0.407484,-3.665127 0.191112,-1.586584 0.525177,-5.754563 0.641274,-8.000888 0.05377,-1.0402224 0.04947,-1.0860047 -0.109963,-1.1736643 C 40.51328,8.6836552 40.022244,8.7636167 38.831926,9.1794596 36.347071,10.047551 32.980887,10.923389 30.626741,11.314344 27.571,11.821814 22.173872,11.857592 18.961599,11.391674 16.490606,11.033275 13.118973,10.217777 10.463284,9.3361911 8.9082781,8.8199882 8.3057561,8.7172863 8.0602638,8.9265909 c -0.108495,0.092504 -0.1231413,0.2194452 -0.084931,0.7363002 0.025387,0.3434879 0.1360821,1.9031999 0.2459761,3.4660269 0.109892,1.562826 0.288374,3.582764 0.396627,4.48875 0.108247,0.905987 0.323859,2.814736 0.479125,4.241665 0.535146,4.918084 0.9556761,6.809526 2.0070351,9.027138 0.910716,1.920957 2.115,3.57751 3.837426,5.278577 2.27123,2.243062 4.720406,3.72305 7.128177,4.307422 1.418712,0.344323 2.952273,0.386131 4.435584,0.120924 z"
       id="path3795"
       inkscape:connector-curvature="0" />
    <path
       style="fill:#cccccc;fill-opacity:0;stroke:none;stroke-width:1px;stroke-linecap:butt;stroke-linejoin:miter;stroke-opacity:1"
       d="m 16.195637,19.959331 c -0.642729,-0.08061 -1.956768,-0.398227 -2.658638,-0.642607 -0.660947,-0.23013 -0.63193,-0.356528 0.307365,-1.338958 1.36418,-1.426825 2.128214,-1.800954 3.807521,-1.864451 2.176388,-0.0823 3.648319,0.316855 3.875075,1.050813 0.08616,0.278886 -0.250212,0.858598 -0.810772,1.397295 -0.554478,0.532854 -1.458073,1.054029 -2.200803,1.269379 -0.574973,0.16671 -1.57403,0.222065 -2.319748,0.128529 z"
       id="path3797"
       inkscape:connector-curvature="0" />
    <path
       style="fill:#cccccc;fill-opacity:0;stroke:none;stroke-width:1px;stroke-linecap:butt;stroke-linejoin:miter;stroke-opacity:1"
       d="m 30.805531,19.957096 c -1.344141,-0.209002 -2.850735,-1.182533 -3.351935,-2.165953 -0.299411,-0.587489 -0.232112,-0.81527 0.345805,-1.170417 0.552751,-0.339684 1.101695,-0.447467 2.564352,-0.503502 1.334239,-0.05111 1.947904,0.04486 2.820936,0.441169 0.724617,0.328938 2.384615,1.855524 2.530242,2.32689 0.07565,0.244856 0.02201,0.280239 -0.839032,0.55356 -1.491733,0.473517 -3.067645,0.674167 -4.070368,0.518253 z"
       id="path3799"
       inkscape:connector-curvature="0" />
    <path
       style="fill:#cccccc;fill-opacity:0;stroke:none;stroke-width:1px;stroke-linecap:butt;stroke-linejoin:miter;stroke-opacity:1"
       d="m 16.676673,33.602519 c 0,-0.02826 0.141146,-0.339777 0.313656,-0.692255 0.561094,-1.146435 1.228165,-2.073092 2.153468,-2.991464 1.294479,-1.284784 1.92038,-1.680284 3.123816,-1.973906 0.626053,-0.152747 0.888299,-0.167199 2.50483,-0.13803 1.741976,0.03143 1.829506,0.04101 2.485113,0.27172 0.373842,0.131558 0.939282,0.417607 1.256909,0.635852 0.819843,0.563319 2.229646,2.021311 2.769015,2.863656 0.402144,0.62804 1.026888,1.809233 1.026888,1.941516 0,0.02822 -0.342431,-0.28163 -0.760958,-0.68854 -1.541789,-1.498999 -3.363632,-2.536279 -4.954495,-2.820882 -0.340347,-0.06089 -1.199164,-0.08272 -2.398146,-0.06099 -1.784801,0.03237 -1.898235,0.04415 -2.549382,0.264627 -1.448945,0.490615 -2.89119,1.408785 -4.160588,2.648737 -0.445568,0.435233 -0.810126,0.768209 -0.810126,0.739947 z"
       id="path3801"
       inkscape:connector-curvature="0" />
    <path
       style="fill:#1abc9d;fill-opacity:1;stroke:none;stroke-width:1px;stroke-linecap:butt;stroke-linejoin:miter;stroke-opacity:1"
       d="M 23.653455,43.825 C 15.960187,41.869457 10.410471,35.151365 7.5872471,24.376379 6.7660718,21.242315 6.2617767,18.412468 5.8881688,14.841956 5.6645344,12.704775 5.4496336,8.0363969 5.5420649,7.3235599 c 0.259673,-2.002495 2.4223379,-2.639602 10.0718471,-2.967117 5.9733,-0.255744 8.665095,-0.27378 12.783633,-0.08564 9.857425,0.450276 12.711574,0.930098 13.826243,2.324393 0.287521,0.359638 0.318392,0.488387 0.354566,1.47859 0.02181,0.596558 -0.01882,2.1317531 -0.09023,3.4115421 -0.835574,14.971232 -5.115806,25.679285 -12.081551,30.225006 -1.54572,1.008715 -3.011933,1.659113 -4.78069,2.120684 l -0.961601,0.250938 -1.010816,-0.256945 z M 17.31537,34.763502 c 0.370848,-0.0922 1.106986,-0.392875 1.635862,-0.668166 0.528885,-0.275292 1.265168,-0.649509 1.636196,-0.831596 l 0.674596,-0.331059 3.228372,-0.01244 c 2.311,-0.0089 3.364933,0.02644 3.708955,0.124393 0.264325,0.07527 0.951582,0.4029 1.527248,0.728082 1.508043,0.851861 2.215818,1.085818 3.309255,1.09389 0.730102,0.0052 1.010346,-0.04243 1.449868,-0.247534 0.630602,-0.294243 1.086523,-0.874763 1.173542,-1.494249 0.0572,-0.407013 0.03466,-0.439135 -0.901832,-1.285587 -1.565514,-1.415019 -2.954436,-1.978263 -6.133628,-2.487347 -1.769798,-0.283389 -6.149258,-0.283389 -7.919065,0 -3.328288,0.532954 -4.847599,1.172584 -6.395563,2.692552 -0.765281,0.751432 -0.81618,0.956775 -0.420489,1.696221 0.307884,0.57536 0.67979,0.849529 1.404779,1.035591 0.737966,0.189399 1.22111,0.186357 2.021904,-0.0127 z M 35.928403,21.039599 c 0.739532,-0.207417 1.243212,-0.489354 1.894539,-1.060471 0.815981,-0.715499 0.823149,-0.679488 -0.349154,-1.752956 -0.574227,-0.525824 -1.965195,-1.822041 -3.091032,-2.880482 l -2.046983,-1.924431 -0.357861,0.389193 c -1.600873,1.741031 -1.654731,4.545514 -0.118116,6.15096 1.061797,1.109359 2.55069,1.50391 4.068607,1.078187 z M 14.704251,20.556156 c 1.673357,-0.597829 2.828934,-2.512824 2.613509,-4.331045 -0.136281,-1.150192 -0.70677,-2.340147 -1.412961,-2.94718 L 15.660277,13.06774 13.3745,15.228902 c -1.257168,1.188633 -2.637121,2.479932 -3.066543,2.869549 l -0.7807834,0.708395 0.3137941,0.392832 c 0.4261903,0.533559 1.2863543,1.119151 2.0082383,1.367203 0.825438,0.283622 2.04397,0.27905 2.855045,-0.01072 l 0,-8e-6 z"
       id="path4919"
       inkscape:connector-curvature="0" />
  </g>
</svg>
