<?xml version="1.0" encoding="UTF-8" standalone="no"?>
<!-- Created with Inkscape (http://www.inkscape.org/) -->

<svg
   xmlns:dc="http://purl.org/dc/elements/1.1/"
   xmlns:cc="http://creativecommons.org/ns#"
   xmlns:rdf="http://www.w3.org/1999/02/22-rdf-syntax-ns#"
   xmlns:svg="http://www.w3.org/2000/svg"
   xmlns="http://www.w3.org/2000/svg"
   xmlns:sodipodi="http://sodipodi.sourceforge.net/DTD/sodipodi-0.dtd"
   xmlns:inkscape="http://www.inkscape.org/namespaces/inkscape"
   width="32"
   height="32"
   id="svg3484"
   version="1.1"
   inkscape:version="0.91 r"
   viewBox="0 0 32 32"
   sodipodi:docname="image_genres_hover_2.svg">
  <defs
     id="defs3486" />
  <sodipodi:namedview
     id="base"
     pagecolor="#ffffff"
     bordercolor="#666666"
     borderopacity="1.0"
     inkscape:pageopacity="0.0"
     inkscape:pageshadow="2"
     inkscape:zoom="11.197802"
     inkscape:cx="1.0417073"
     inkscape:cy="16"
     inkscape:current-layer="layer1"
     showgrid="true"
     inkscape:grid-bbox="true"
     inkscape:document-units="px"
     inkscape:window-width="1920"
     inkscape:window-height="1033"
     inkscape:window-x="0"
     inkscape:window-y="24"
     inkscape:window-maximized="1" />
  <metadata
     id="metadata3489">
    <rdf:RDF>
      <cc:Work
         rdf:about="">
        <dc:format>image/svg+xml</dc:format>
        <dc:type
           rdf:resource="http://purl.org/dc/dcmitype/StillImage" />
        <dc:title />
      </cc:Work>
    </rdf:RDF>
  </metadata>
  <g
     id="layer1"
     inkscape:label="Layer 1"
     inkscape:groupmode="layer">
    <path
       style="fill:#a0a0a0;stroke:none;stroke-width:1px;stroke-linecap:butt;stroke-linejoin:miter;stroke-opacity:1"
       d=""
       id="path3412"
       inkscape:connector-curvature="0" />
    <path
       style="fill:#1abc9d;stroke:none;stroke-width:1px;stroke-linecap:butt;stroke-linejoin:miter;stroke-opacity:1;fill-opacity:1"
       d="M 7.4311858,9.9502741 1.9615307,4.5078102 3.1418149,3.3229135 4.3220992,2.1380167 8.410706,6.1914509 c 2.248734,2.2293887 4.731223,4.6890641 5.516643,5.4659451 l 1.428034,1.412512 -1.158836,1.161415 c -0.637361,0.638778 -1.189633,1.161415 -1.227272,1.161415 -0.03764,0 -2.529779,-2.449108 -5.5380892,-5.4424639 z"
       id="path4222"
       inkscape:connector-curvature="0" />
    <path
       style="fill:#1abc9d;stroke:none;stroke-width:1px;stroke-linecap:butt;stroke-linejoin:miter;stroke-opacity:1;fill-opacity:1"
       d="M 3.2603058,28.953213 2.0585903,27.799572 2.7244864,27.149205 c 0.3662428,-0.357701 2.8159672,-2.784914 5.4438319,-5.393806 l 4.7779357,-4.743438 1.205381,1.148641 1.205382,1.14864 -5.313543,5.325432 c -2.9224486,2.928987 -5.3738226,5.35845 -5.4474978,5.398807 -0.099223,0.05435 -0.4455342,-0.22574 -1.3356704,-1.080268 z"
       id="path4224"
       inkscape:connector-curvature="0" />
    <path
       style="fill:#1abc9d;stroke:none;stroke-width:1px;stroke-linecap:butt;stroke-linejoin:miter;stroke-opacity:1;fill-opacity:1"
       d="m 14.910067,17.356975 -1.158798,-1.161376 1.182002,-1.182002 1.182003,-1.182003 1.211148,1.204762 1.211147,1.204763 -1.167439,1.138616 c -0.642091,0.626239 -1.197549,1.138616 -1.234351,1.138616 -0.0368,0 -0.588373,-0.522619 -1.225712,-1.161376 z"
       id="path4226"
       inkscape:connector-curvature="0" />
    <path
       style="fill:#1abc9d;stroke:none;stroke-width:1px;stroke-linecap:butt;stroke-linejoin:miter;stroke-opacity:1;fill-opacity:1"
       d="m 18.096999,14.292715 -1.176933,-1.179361 5.675485,-5.66968 5.675484,-5.6696801 1.151971,1.2055937 c 0.633584,0.6630766 1.143779,1.2288391 1.133766,1.2572502 -0.01001,0.028411 -2.552747,2.5679621 -5.650522,5.6434468 l -5.632318,5.5917904 -1.176933,-1.17936 z"
       id="path4230"
       inkscape:connector-curvature="0" />
    <path
       style="fill:#1abc9d;stroke:none;stroke-width:1px;stroke-linecap:butt;stroke-linejoin:miter;stroke-opacity:1;fill-opacity:1"
       d="m 22.337537,24.745427 -5.43263,-5.378695 1.190726,-1.179499 1.190726,-1.179499 5.473389,5.421403 5.473388,5.421403 -1.201535,1.138616 c -0.660844,0.626239 -1.215011,1.137795 -1.231484,1.136792 -0.01647,-0.001 -2.474633,-2.422238 -5.46258,-5.380521 z"
       id="path4232"
       inkscape:connector-curvature="0" />
  </g>
</svg>
